<svg xmlns="http://www.w3.org/2000/svg" width="89.986" height="89.986" viewBox="0 0 89.986 89.986"><defs><style>.a{fill:#d1d1d1;}.b{fill:#ff6f2f;}</style></defs><path class="a" d="M528.15,1282.166H517.605a9.139,9.139,0,0,1-9.139-9.139v-55.538a9.139,9.139,0,0,0,9.139,9.139h1.406v46.4A9.139,9.139,0,0,0,528.15,1282.166Zm39.272-32.19,3.318-15.028a21.907,21.907,0,0,1,5.991-11.2l6.223-6.223a9.294,9.294,0,0,0-7.434,2.689l-10.74,10.74a21.906,21.906,0,0,0-5.991,11.2l-1.991,9.959S567.2,1250.028,567.422,1249.976Z" transform="translate(-504.951 -1213.974)"/><path d="M574.937,1230.707a3.515,3.515,0,0,0-3.515,3.515v29.268a12.574,12.574,0,0,0-5.624-1.323H501.12a5.63,5.63,0,0,1-5.624-5.624v-44.2a12.577,12.577,0,0,0,5.624,1.32h32.339a3.515,3.515,0,1,0,0-7.03H501.12A5.63,5.63,0,0,1,495.5,1201a3.515,3.515,0,1,0-7.03,0v55.538A12.669,12.669,0,0,0,501.12,1269.2H565.8a5.624,5.624,0,1,1-3.839,9.735,3.515,3.515,0,0,0-4.8,5.136,12.654,12.654,0,0,0,21.293-9.247v-40.6A3.515,3.515,0,0,0,574.937,1230.707Z" transform="translate(-488.466 -1197.489)"/><path d="M764.495,1238.113a3.516,3.516,0,0,0,3.175.961l9.959-1.991a25.343,25.343,0,0,0,12.993-6.952l10.74-10.74a12.83,12.83,0,1,0-18.144-18.144l-10.74,10.74a25.341,25.341,0,0,0-6.953,12.993l-1.991,9.959a3.516,3.516,0,0,0,.961,3.174Zm7.923-11.755a18.331,18.331,0,0,1,5.03-9.4l10.74-10.74a5.8,5.8,0,1,1,8.2,8.2l-10.74,10.74a18.332,18.332,0,0,1-9.4,5.03l-4.79.957Z" transform="translate(-715.133 -1197.489)"/><path class="b" d="M645.023,1427.7H611.981a3.515,3.515,0,0,1,0-7.03h33.042a3.515,3.515,0,1,1,0,7.03ZM627.272,1411a3.515,3.515,0,0,0-3.515-3.515H611.981a3.515,3.515,0,0,0,0,7.03h11.776A3.515,3.515,0,0,0,627.272,1411Z" transform="translate(-587.376 -1370.581)"/></svg>