<svg xmlns="http://www.w3.org/2000/svg" width="81.729" height="81.735" viewBox="0 0 81.729 81.735"><defs><style>.a{fill:#d1d1d1;}.b{fill:#ff6f2f;}</style></defs><path class="a" d="M45.354,95.349H35.981A15.964,15.964,0,0,1,20.017,79.385V35.964A15.964,15.964,0,0,1,35.981,20h9.373a15.669,15.669,0,0,0-15.6,15.957V79.392A15.669,15.669,0,0,0,45.354,95.349ZM73.568,49.508l3.013-13.65a19.9,19.9,0,0,1,5.442-10.17l5.652-5.652a8.442,8.442,0,0,0-6.753,2.442l-9.755,9.755A19.9,19.9,0,0,0,65.725,42.4l-1.808,9.046,9.046-1.808c.2-.04.4-.086.6-.132Z" transform="translate(-16.824 -16.807)"/><path d="M47.749,81.735H19.174A19.178,19.178,0,0,1,.017,62.578V19.157A19.178,19.178,0,0,1,19.174,0H48.387a3.193,3.193,0,0,1,0,6.386H19.174A12.786,12.786,0,0,0,6.4,19.157V62.578A12.786,12.786,0,0,0,19.174,75.349H47.749A12.786,12.786,0,0,0,60.52,62.578V43.422a3.193,3.193,0,0,1,6.386,0V62.578A19.178,19.178,0,0,1,47.749,81.735Zm-.013-43.963,9.046-1.808a23.016,23.016,0,0,0,11.8-6.315l9.755-9.755A11.654,11.654,0,0,0,61.858,3.413L52.1,13.169a23.019,23.019,0,0,0-6.315,11.8l-1.808,9.046a3.193,3.193,0,0,0,3.757,3.757ZM73.823,7.929a5.268,5.268,0,0,1,0,7.45l-9.755,9.755A16.651,16.651,0,0,1,55.53,29.7l-4.351.87.87-4.35a16.65,16.65,0,0,1,4.569-8.538l9.755-9.755a5.268,5.268,0,0,1,7.45,0Z" transform="translate(-0.017)"/><path class="b" d="M119.011,318.386H84.21a3.193,3.193,0,1,1,0-6.386h34.8a3.193,3.193,0,1,1,0,6.386Zm-17.241,5.587a3.991,3.991,0,1,0,3.991,3.991A3.991,3.991,0,0,0,101.77,323.973Z" transform="translate(-68.086 -262.193)"/></svg>