<svg xmlns="http://www.w3.org/2000/svg" width="89.986" height="89.986" viewBox="0 0 89.986 89.986"><defs><style>.a{fill:#d1d1d1;}.b{fill:#ff6f2f;}</style></defs><path class="a" d="M632.062,574.023a18.985,18.985,0,0,0-18.737,15.936,15.535,15.535,0,0,0-1.914-.118A15.387,15.387,0,0,0,597.076,610.8a12.741,12.741,0,0,0,7.425,23.944c.012-.552.058-1.1.118-1.66a8.2,8.2,0,0,1,.077-.82,11.221,11.221,0,0,1-4.094-8.677c0-3.783,2.6-5.579,5.467-7.617A2.548,2.548,0,0,0,607,613.04a26.251,26.251,0,0,1-.952-5.976c.176-5.335,3.689-8.26,8.082-7.783.616.067,2.814.78,3.566.912a3.311,3.311,0,0,0,3.816-2.62c1.6-7.85,8.548-15.818,16.872-15.818A17.157,17.157,0,0,1,649.708,586a18.987,18.987,0,0,0-17.646-11.975Z" transform="translate(-586.717 -570.508)"/><path d="M586.578,621.864A16.258,16.258,0,0,1,576.472,592.8a18.909,18.909,0,0,1,17.615-22.943A22.5,22.5,0,0,1,637.7,572.4a24.785,24.785,0,0,1,4.292,48.584,3.515,3.515,0,0,1-1.855-6.781,17.754,17.754,0,0,0-4.7-34.875c-.225,0-.469.006-.748.017a3.515,3.515,0,0,1-3.657-3.388,15.467,15.467,0,0,0-30.722-1.927,3.515,3.515,0,0,1-3.9,2.929,12.068,12.068,0,0,0-1.481-.092,11.872,11.872,0,0,0-11.059,16.166,3.515,3.515,0,0,1-1.646,4.39,9.227,9.227,0,0,0,4.357,17.407,3.515,3.515,0,0,1,0,7.03Z" transform="translate(-570.233 -554.023)"/><path class="b" d="M738.93,822.023a16.7,16.7,0,1,0,16.7,16.7A16.715,16.715,0,0,0,738.93,822.023Zm0,26.363a9.666,9.666,0,1,1,9.666-9.666A9.677,9.677,0,0,1,738.93,848.386Z" transform="translate(-695.518 -774.921)"/><path d="M908.155,1008.945a3.515,3.515,0,0,0,0-4.971l-4.921-4.921a3.515,3.515,0,0,0-4.971,4.971l4.921,4.921a3.515,3.515,0,0,0,4.971,0Z" transform="translate(-839.762 -919.988)"/></svg>