<svg xmlns="http://www.w3.org/2000/svg" width="81.728" height="81.735" viewBox="0 0 81.728 81.735"><defs><style>.a{fill:#d1d1d1;}.b{fill:#ff6f2f;}</style></defs><g transform="translate(3.193 3.199)"><path class="a" d="M31.125,334.725a9.578,9.578,0,0,1,0-13.545l6-6-2.088-2.064-12.21,12.213a9.577,9.577,0,0,0,13.545,13.545l1.349-1.349A9.543,9.543,0,0,1,31.125,334.725Z" transform="translate(-20.019 -266.331)"/><path class="a" d="M30.271,21.95c-.063-.013-10.252-1.912-10.252-1.912L21.89,30.1a22.525,22.525,0,0,0,6.16,11.512l8.99,8.992,2.294-2.068a22.522,22.522,0,0,1-6.16-11.512Z" transform="translate(-20.019 -20.038)"/></g><path d="M50.718,67.3a3.182,3.182,0,0,1-2.254-.931L8.99,27.028A25.637,25.637,0,0,1,1.953,13.881l-.008-.042L.073,3.775A3.193,3.193,0,0,1,3.8.052L13.86,1.924l.042.008A25.634,25.634,0,0,1,27.045,8.965L66.516,48.3a3.192,3.192,0,1,1-4.507,4.522L22.534,13.484A19.276,19.276,0,0,0,12.671,8.2L7.2,7.18l1.017,5.469A19.269,19.269,0,0,0,13.5,22.51L52.971,61.846A3.192,3.192,0,0,1,50.718,67.3ZM21.82,78,34.11,65.706a3.193,3.193,0,0,0-4.516-4.514L17.3,73.484a6.385,6.385,0,1,1-9.029-9.03l12.21-12.213a3.193,3.193,0,1,0-4.516-4.514L3.76,59.939A12.77,12.77,0,0,0,21.82,78ZM65.592,34.216l7.19-7.192a25.634,25.634,0,0,0,7.033-13.143l.008-.042L81.694,3.775A3.193,3.193,0,0,0,77.972.052L67.908,1.924l-.042.008A25.633,25.633,0,0,0,54.722,8.965l-7.071,7.072a3.193,3.193,0,0,0,4.516,4.514l7.07-7.072A19.271,19.271,0,0,1,69.1,8.2l5.47-1.017L73.55,12.65a19.27,19.27,0,0,1-5.283,9.86L61.076,29.7a3.192,3.192,0,1,0,4.516,4.514Z" transform="translate(-0.02 0.002)"/><path class="b" d="M366.567,378.548a12.73,12.73,0,0,1-9.03-3.734l-.07-.072L355,372.12a3.193,3.193,0,1,1,4.655-4.371l2.425,2.582a6.385,6.385,0,0,0,9-9.061l-.07-.072-2.462-2.622A3.192,3.192,0,1,1,373.2,354.2l2.431,2.588a12.764,12.764,0,0,1-9.068,21.756Z" transform="translate(-297.609 -296.813)"/></svg>