<svg xmlns="http://www.w3.org/2000/svg" width="84.196" height="84.196" viewBox="0 0 84.196 84.196"><defs><style>.a{fill:#d1d1d1;}.b{fill:#ff6f2f;}</style></defs><path class="a" d="M55.657,654.482a18.659,18.659,0,0,1-5.084.7,18.911,18.911,0,0,1,0-37.823,18.657,18.657,0,0,1,5.084.7,18.917,18.917,0,0,0,0,36.423ZM21.631,636.27a38.816,38.816,0,0,1,33.876-38.5,38.809,38.809,0,1,0,0,77A38.816,38.816,0,0,1,21.631,636.27Z" transform="translate(-8.475 -594.172)"/><path d="M33.862,661.657a42.1,42.1,0,1,1,0-84.2A42.326,42.326,0,0,1,68.1,594.94a3.289,3.289,0,0,1-5.333,3.85,35.521,35.521,0,1,0,0,41.537,3.289,3.289,0,0,1,5.333,3.851A42.326,42.326,0,0,1,33.862,661.657ZM49.709,635a3.289,3.289,0,1,0-4.725-4.576,15.381,15.381,0,0,1-11.122,4.755,15.622,15.622,0,1,1,0-31.245,15.381,15.381,0,0,1,11.122,4.755,3.289,3.289,0,1,0,4.725-4.576,21.905,21.905,0,0,0-15.847-6.756,22.2,22.2,0,0,0,0,44.4A21.905,21.905,0,0,0,49.709,635Z" transform="translate(8.236 -577.461)"/><path class="b" d="M268.3,771.632a4.707,4.707,0,0,1,0-6.69l3.883-3.86a3.289,3.289,0,0,0-4.638-4.665l-3.883,3.861A11.252,11.252,0,0,0,260.809,765H231.053a3.289,3.289,0,0,0,0,6.578h29.756a11.251,11.251,0,0,0,2.851,4.721l3.883,3.861a3.289,3.289,0,0,0,4.638-4.665Z" transform="translate(-188.955 -726.189)"/></svg>