<svg xmlns="http://www.w3.org/2000/svg" width="88" height="83.188" viewBox="0 0 88 83.188"><defs><style>.a{fill:#d1d1d1;}.b{fill:#ff6f2f;}</style></defs><path class="a" d="M31.484,79.382V51.18A17.16,17.16,0,0,1,48.623,34H38.188A17.187,17.187,0,0,0,21,51.188V79.375A17.188,17.188,0,0,0,38.188,96.563H48.623a17.16,17.16,0,0,1-17.139-17.18Z" transform="translate(-17.391 -30.562)"/><path d="M67.375,83.438H20.621A20.645,20.645,0,0,1,0,62.816V34.625A20.648,20.648,0,0,1,20.625,14h46.75A20.648,20.648,0,0,1,88,34.625V62.813A20.648,20.648,0,0,1,67.375,83.438ZM20.625,20.875a13.766,13.766,0,0,0-13.75,13.75V62.816A13.762,13.762,0,0,0,20.621,76.563H67.375a13.766,13.766,0,0,0,13.75-13.75V34.625a13.766,13.766,0,0,0-13.75-13.75ZM63.938,93.75A3.437,3.437,0,0,0,60.5,90.313h-33a3.438,3.438,0,0,0,0,6.875h33A3.437,3.437,0,0,0,63.938,93.75Z" transform="translate(0 -14)"/><circle cx="4.289" cy="4.289" r="4.289" transform="translate(46.975 19.623)"/><path class="b" d="M111.065,214.467a3.431,3.431,0,0,1-2.483-5.8l8.546-8.971q.092-.1.19-.184a11.979,11.979,0,0,1,15.478-.49l.044.035,5.217,4.267c2.466,1.941,4.4,1.817,6.463-.417l4.934-5.785a3.431,3.431,0,0,1,5.221,4.453L149.7,207.41q-.037.044-.077.087a11.279,11.279,0,0,1-8.032,4.057,12.039,12.039,0,0,1-7.811-2.861l-.044-.035-5.216-4.266a5.133,5.133,0,0,0-6.527.149L113.55,213.4a3.421,3.421,0,0,1-2.485,1.064Z" transform="translate(-89.135 -164.653)"/></svg>