<svg xmlns="http://www.w3.org/2000/svg" width="33.657" height="33.657" viewBox="0 0 33.657 33.657"><defs><style>.a{fill:#fcfaf7;}</style></defs><path class="a" d="M31.253,2.25H2.4A2.414,2.414,0,0,0,0,4.677v28.8a2.414,2.414,0,0,0,2.4,2.427H31.253a2.421,2.421,0,0,0,2.4-2.427V4.677A2.421,2.421,0,0,0,31.253,2.25ZM10.172,31.1H5.184V15.037h5V31.1ZM7.678,12.843A2.892,2.892,0,1,1,10.57,9.951a2.894,2.894,0,0,1-2.892,2.892ZM28.872,31.1H23.883V23.286c0-1.863-.038-4.26-2.592-4.26-2.6,0-3,2.028-3,4.125V31.1H13.305V15.037h4.786V17.23h.068a5.254,5.254,0,0,1,4.726-2.592c5.049,0,5.988,3.328,5.988,7.656Z" transform="translate(0 -2.25)"/></svg>