<svg xmlns="http://www.w3.org/2000/svg" width="77.844" height="90.03" viewBox="0 0 77.844 90.03"><path d="M-634.1,1266.96a44.881,44.881,0,0,1-31.832,13.187,45.02,45.02,0,0,1-45.019-45.019h25.119a19.9,19.9,0,0,0,19.9,19.9,19.812,19.812,0,0,0,14.071-5.83Z" transform="translate(710.95 -1190.117)" fill="#1c222b" style="isolation:isolate"/><path d="M-581.1,1215.493a19.813,19.813,0,0,1-5.83,14.071L-601,1215.493q7.257-6.8,14.505-13.613A19.769,19.769,0,0,1-581.1,1215.493Z" transform="translate(646.019 -1170.482)" fill="#ffab31"/><path d="M-633.106,1139.407q-9.164,8.594-18.319,17.188a19.822,19.822,0,0,0-14.505-6.28,19.9,19.9,0,0,0-19.9,19.893H-710.95a45.014,45.014,0,0,1,45.019-45.011A44.877,44.877,0,0,1-633.106,1139.407Z" transform="translate(710.95 -1125.197)" fill="#0b0f14" style="isolation:isolate"/><path d="M-615.2,1192.823q-7.256,6.814-14.505,13.614h-19.9a19.9,19.9,0,0,1,19.9-19.893A19.821,19.821,0,0,1-615.2,1192.823Z" transform="translate(674.722 -1161.425)" fill="#ff6c1a"/><path d="M-615.631,1249.2a19.813,19.813,0,0,1-14.071,5.83,19.9,19.9,0,0,1-19.9-19.9h19.9Z" transform="translate(674.722 -1190.117)" fill="#ff8e1d"/></svg>