<svg xmlns="http://www.w3.org/2000/svg" width="295.161" height="90.03" viewBox="0 0 295.161 90.03"><g transform="translate(73.873 29.161)" style="isolation:isolate"><path d="M-514.411,1228.655a15.506,15.506,0,0,1-11.558-4.65,15.741,15.741,0,0,1-4.561-11.47,15.72,15.72,0,0,1,4.561-11.491,15.545,15.545,0,0,1,11.558-4.628,15.8,15.8,0,0,1,7.772,1.971,14.435,14.435,0,0,1,5.558,5.336l-5.27,3.056a8.19,8.19,0,0,0-3.277-3.255,9.732,9.732,0,0,0-4.783-1.173,9.726,9.726,0,0,0-7.285,2.834,10.077,10.077,0,0,0-2.767,7.351,10.018,10.018,0,0,0,2.767,7.307,9.723,9.723,0,0,0,7.285,2.834,9.856,9.856,0,0,0,4.8-1.173,7.933,7.933,0,0,0,3.255-3.211l5.27,3.056a14.468,14.468,0,0,1-5.535,5.336A15.765,15.765,0,0,1-514.411,1228.655Z" transform="translate(530.53 -1196.416)" fill="#0b0f14"/><path d="M-434.57,1218.667h5.713v22.142h-5.713V1238.2a8.694,8.694,0,0,1-7.218,3.233,10.031,10.031,0,0,1-7.594-3.388,11.705,11.705,0,0,1-3.166-8.3,11.706,11.706,0,0,1,3.166-8.3,10.031,10.031,0,0,1,7.594-3.388,8.7,8.7,0,0,1,7.218,3.233Zm-10.539,15.565a5.9,5.9,0,0,0,4.384,1.75,5.972,5.972,0,0,0,4.406-1.75,6.083,6.083,0,0,0,1.749-4.495,6.087,6.087,0,0,0-1.749-4.5,5.975,5.975,0,0,0-4.406-1.749,5.9,5.9,0,0,0-4.384,1.749,6.13,6.13,0,0,0-1.727,4.5A6.126,6.126,0,0,0-445.109,1234.233Z" transform="translate(484.478 -1209.19)" fill="#0b0f14"/><path d="M-369.146,1218.047a10.082,10.082,0,0,1,7.639,3.388,11.712,11.712,0,0,1,3.166,8.3,11.711,11.711,0,0,1-3.166,8.3,10.082,10.082,0,0,1-7.639,3.388,8.571,8.571,0,0,1-7.174-3.233v11.47h-5.712v-31h5.712v2.612A8.572,8.572,0,0,1-369.146,1218.047Zm-5.447,16.186a5.9,5.9,0,0,0,4.384,1.75,5.972,5.972,0,0,0,4.406-1.75,6.083,6.083,0,0,0,1.749-4.495,6.087,6.087,0,0,0-1.749-4.5,5.975,5.975,0,0,0-4.406-1.749,5.9,5.9,0,0,0-4.384,1.749,6.13,6.13,0,0,0-1.727,4.5A6.125,6.125,0,0,0-374.593,1234.233Z" transform="translate(442.835 -1209.19)" fill="#0b0f14"/><path d="M-301.443,1218.047a10.08,10.08,0,0,1,7.639,3.388,11.709,11.709,0,0,1,3.167,8.3,11.707,11.707,0,0,1-3.167,8.3,10.079,10.079,0,0,1-7.639,3.388,8.57,8.57,0,0,1-7.174-3.233v11.47h-5.713v-31h5.713v2.612A8.571,8.571,0,0,1-301.443,1218.047Zm-5.447,16.186a5.9,5.9,0,0,0,4.384,1.75,5.973,5.973,0,0,0,4.406-1.75,6.084,6.084,0,0,0,1.749-4.495,6.089,6.089,0,0,0-1.749-4.5,5.976,5.976,0,0,0-4.406-1.749,5.9,5.9,0,0,0-4.384,1.749,6.131,6.131,0,0,0-1.727,4.5A6.126,6.126,0,0,0-306.89,1234.233Z" transform="translate(402.853 -1209.19)" fill="#0b0f14"/><path d="M-244.714,1224.955q0,.886,1.173,1.44a15.57,15.57,0,0,0,2.856.974,29.9,29.9,0,0,1,3.366,1.063,6.542,6.542,0,0,1,2.856,2.148,5.941,5.941,0,0,1,1.173,3.764,6.082,6.082,0,0,1-2.546,5.248,10.583,10.583,0,0,1-6.355,1.838q-6.82,0-9.3-5.27l4.96-2.79a4.1,4.1,0,0,0,4.339,2.878q3.056,0,3.056-1.9,0-.885-1.173-1.439a16.821,16.821,0,0,0-2.856-1,29.592,29.592,0,0,1-3.365-1.107,6.9,6.9,0,0,1-2.857-2.1,5.525,5.525,0,0,1-1.173-3.609,6.186,6.186,0,0,1,2.413-5.159,9.464,9.464,0,0,1,6-1.882,10.035,10.035,0,0,1,4.915,1.218,8.9,8.9,0,0,1,3.5,3.477l-4.871,2.657a3.644,3.644,0,0,0-3.543-2.259,3.246,3.246,0,0,0-1.838.487A1.52,1.52,0,0,0-244.714,1224.955Z" transform="translate(365.743 -1209.19)" fill="#0b0f14"/><path d="M-189.763,1216.111h-5v9.211a2.189,2.189,0,0,0,.576,1.682,2.642,2.642,0,0,0,1.683.6,24.7,24.7,0,0,0,2.746-.022v5.182q-5.89.664-8.3-1.107t-2.413-6.333v-9.211h-3.853v-5.491h3.853v-4.473l5.713-1.727v6.2h5Z" transform="translate(337.895 -1201.143)" fill="#ff8e1d"/><path d="M-157.364,1232.085q1.151,4.163,6.244,4.163a5.843,5.843,0,0,0,4.96-2.214l4.605,2.657q-3.278,4.74-9.654,4.738a11.912,11.912,0,0,1-8.813-3.321,11.348,11.348,0,0,1-3.321-8.37,11.447,11.447,0,0,1,3.277-8.348,11.27,11.27,0,0,1,8.414-3.344,10.559,10.559,0,0,1,8.038,3.365,11.688,11.688,0,0,1,3.167,8.326,13.391,13.391,0,0,1-.221,2.347Zm-.088-4.428h11.293a5.357,5.357,0,0,0-2.015-3.366,5.778,5.778,0,0,0-3.477-1.107,6.013,6.013,0,0,0-3.808,1.173A5.609,5.609,0,0,0-157.452,1227.657Z" transform="translate(313.687 -1209.19)" fill="#ff8e1d"/><path d="M-89.246,1241.429a11.288,11.288,0,0,1-8.348-3.366,11.346,11.346,0,0,1-3.343-8.325,11.348,11.348,0,0,1,3.343-8.326,11.289,11.289,0,0,1,8.348-3.365,11.479,11.479,0,0,1,5.89,1.55,10.3,10.3,0,0,1,4.03,4.162l-4.915,2.879a5.018,5.018,0,0,0-2.015-2.17,5.86,5.86,0,0,0-3.034-.8,5.724,5.724,0,0,0-4.251,1.7,5.945,5.945,0,0,0-1.683,4.362,5.887,5.887,0,0,0,1.683,4.318,5.72,5.72,0,0,0,4.251,1.705,6.067,6.067,0,0,0,3.078-.775,4.88,4.88,0,0,0,2.015-2.148l4.96,2.834a11.085,11.085,0,0,1-4.119,4.185A11.353,11.353,0,0,1-89.246,1241.429Z" transform="translate(276.834 -1209.19)" fill="#ff8e1d"/><path d="M-28.276,1206.167a8.018,8.018,0,0,1,6,2.436,9.246,9.246,0,0,1,2.369,6.731v13.595h-5.713v-12.887a4.537,4.537,0,0,0-1.2-3.388A4.357,4.357,0,0,0-30,1211.481a4.7,4.7,0,0,0-3.543,1.373,5.71,5.71,0,0,0-1.329,4.118v11.957h-5.713v-31h5.713v11.337Q-32.794,1206.168-28.276,1206.167Z" transform="translate(241.195 -1197.311)" fill="#ff8e1d"/></g><path d="M-634.1,1266.96a44.881,44.881,0,0,1-31.832,13.187,45.02,45.02,0,0,1-45.019-45.019h25.119a19.9,19.9,0,0,0,19.9,19.9,19.812,19.812,0,0,0,14.071-5.83Z" transform="translate(710.95 -1190.117)" fill="#1c222b" style="isolation:isolate"/><path d="M-581.1,1215.493a19.813,19.813,0,0,1-5.83,14.071L-601,1215.493q7.257-6.8,14.505-13.613A19.769,19.769,0,0,1-581.1,1215.493Z" transform="translate(646.019 -1170.482)" fill="#ffab31"/><path d="M-633.106,1139.407q-9.164,8.594-18.319,17.188a19.822,19.822,0,0,0-14.505-6.28,19.9,19.9,0,0,0-19.9,19.893H-710.95a45.014,45.014,0,0,1,45.019-45.011A44.877,44.877,0,0,1-633.106,1139.407Z" transform="translate(710.95 -1125.197)" fill="#0b0f14" style="isolation:isolate"/><path d="M-615.2,1192.823q-7.256,6.814-14.505,13.614h-19.9a19.9,19.9,0,0,1,19.9-19.893A19.821,19.821,0,0,1-615.2,1192.823Z" transform="translate(674.722 -1161.425)" fill="#ff6c1a"/><path d="M-615.631,1249.2a19.813,19.813,0,0,1-14.071,5.83,19.9,19.9,0,0,1-19.9-19.9h19.9Z" transform="translate(674.722 -1190.117)" fill="#ff8e1d"/></svg>