<svg xmlns="http://www.w3.org/2000/svg" width="37.89" height="30.832" viewBox="0 0 37.89 30.832"><defs><style>.a{fill:#fcfaf7;}</style></defs><path class="a" d="M39.3,8.153a15.716,15.716,0,0,1-4.464,1.228,7.8,7.8,0,0,0,3.42-4.3,15.446,15.446,0,0,1-4.938,1.887A7.771,7.771,0,0,0,19.872,12.28a7.61,7.61,0,0,0,.2,1.774A22.03,22.03,0,0,1,4.047,5.921a7.789,7.789,0,0,0,2.417,10.39,7.592,7.592,0,0,1-3.533-.972v.1a7.78,7.78,0,0,0,6.239,7.628,7.825,7.825,0,0,1-2.047.273,7.333,7.333,0,0,1-1.461-.145,7.786,7.786,0,0,0,7.266,5.4,15.586,15.586,0,0,1-9.659,3.332,15.757,15.757,0,0,1-1.855-.112,21.728,21.728,0,0,0,11.9,3.517c14.316,0,22.136-11.859,22.136-22.144,0-.337-.008-.674-.024-1A15.824,15.824,0,0,0,39.3,8.153Z" transform="translate(-1.413 -4.5)"/></svg>